#!OML:ASF G:\JayActor3\Patient Classification 1\Patient 1\Session 6\male.ASF
:FULLY-SPECIFIED
:DEGREES
2676
root -0.080135 16.6465 -5.15189 161.029 -82.9193 -156.72
lowerback -3.75236 -1.86023 0.483066
upperback 1.41331 -2.53066 0.595005
thorax 3.56376 -1.25666 0.170179
lowerneck 4.00567 -12.2668 -6.69532
upperneck -9.19816 -16.1135 14.1115
head -1.63153 -8.4622 5.48588
rclavicle 9.7156e-015 -1.43125e-014
rhumerus -108.689 57.6186 -140.88
rradius 93.1305
rwrist 21.9291
rhand -62.3583 23.1507
rfingers 7.12502
rthumb -34.3939 -3.54478
lclavicle 9.7156e-015 -1.43125e-014
lhumerus -89.8848 -41.3275 117.958
lradius 96.0395
lwrist -4.14102
lhand -43.2628 -31.0728
lfingers 7.12502
lthumb -16.1114 -1.72247
rfemur -13.9368 3.22401 17.7601
rtibia 29.825
rfoot -22.3546 -15.5189
rtoes 3.32754
lfemur -3.74791 5.61681 -13.3361
ltibia 14.6477
lfoot -13.8862 13.8122
ltoes -5.47087
2677
root -0.0850953 16.6462 -5.14937 161.395 -82.8524 -157.064
lowerback -3.77674 -1.84403 0.491503
upperback 1.40217 -2.50874 0.57496
thorax 3.5647 -1.24522 0.145721
lowerneck 3.84817 -12.0899 -6.51453
upperneck -9.07487 -15.8765 13.7732
head -1.63928 -8.3274 5.35408
rclavicle -2.16178e-015 -1.35174e-014
rhumerus -108.425 57.4724 -140.567
rradius 93.1356
rwrist 22.0385
rhand -62.3169 23.0281
rfingers 7.12502
rthumb -34.3546 -3.67628
lclavicle -2.16178e-015 -1.35174e-014
lhumerus -90.0125 -41.3758 118.003
lradius 96.1436
lwrist -4.13661
lhand -43.1609 -30.9627
lfingers 7.12502
lthumb -16.0133 -1.60447
rfemur -13.948 3.23647 17.7202
rtibia 29.8114
rfoot -22.3362 -15.4073
rtoes 3.35728
lfemur -3.75617 5.60656 -13.3691
ltibia 14.6789
lfoot -13.9655 13.8953
ltoes -5.32535
2678
root -0.089958 16.6459 -5.1462 161.834 -82.7742 -157.486
lowerback -3.79174 -1.82774 0.495595
upperback 1.39032 -2.48621 0.550407
thorax 3.5596 -1.23356 0.119454
lowerneck 3.70279 -11.9033 -6.343
upperneck -8.95752 -15.6272 13.445
head -1.64895 -8.18744 5.2276
rclavicle -2.54444e-014 4.77083e-015
rhumerus -108.133 57.3052 -140.216
rradius 93.1476
rwrist 22.1539
rhand -62.2559 22.9461
rfingers 7.12502
rthumb -34.2967 -3.77131
lclavicle -2.54444e-014 4.77083e-015
lhumerus -90.1607 -41.4317 118.053
lradius 96.2636
lwrist -4.12216
lhand -43.0394 -30.8332
lfingers 7.12502
lthumb -15.8963 -1.46566
rfemur -13.9604 3.24719 17.6716
rtibia 29.8021
rfoot -22.3103 -15.2899
rtoes 3.37188
lfemur -3.75601 5.62254 -13.4097
ltibia 14.7037
lfoot -14.0337 13.9675
ltoes -5.20355
2679
root -0.0944634 16.6456 -5.14248 162.344 -82.6806 -157.98
lowerback -3.80101 -1.81061 0.49206
upperback 1.38061 -2.46205 0.523568
thorax 3.55374 -1.22124 0.095367
lowerneck 3.55922 -11.7103 -6.175
upperneck -8.84776 -15.3695 13.1231
head -1.65975 -8.04404 5.1037
rclavicle -1.13307e-014 -6.75868e-015
rhumerus -107.809 57.1251 -139.82
rradius 93.1661
rwrist 22.2692
rhand -62.169 22.9138
rfingers 7.12502
rthumb -34.2142 -3.8222
lclavicle -1.13307e-014 -6.75868e-015
lhumerus -90.3162 -41.4983 118.098
lradius 96.4007
lwrist -4.09676
lhand -42.9049 -30.6856
lfingers 7.12502
lthumb -15.7668 -1.30779
rfemur -13.9798 3.2677 17.6157
rtibia 29.7964
rfoot -22.2808 -15.1675
rtoes 3.38222
lfemur -3.75432 5.67199 -13.4558
ltibia 14.7267
lfoot -14.0911 14.0231
ltoes -5.10193
2680
root -0.0987626 16.6453 -5.13814 162.914 -82.5731 -158.536
lowerback -3.80228 -1.7931 0.480871
upperback 1.37247 -2.43685 0.494059
thorax 3.5452 -1.20856 0.0731312
lowerneck 3.42241 -11.5111 -6.00635
upperneck -8.75051 -15.1035 12.804
head -1.67453 -7.89743 4.98139
rclavicle -2.77305e-014 4.37326e-015
rhumerus -107.452 56.9297 -139.379
rradius 93.1926
rwrist 22.3738
rhand -62.0462 22.9585
rfingers 7.12502
rthumb -34.0975 -3.80357
lclavicle -2.77305e-014 4.37326e-015
lhumerus -90.4828 -41.5768 118.138
lradius 96.5548
lwrist -4.06455
lhand -42.7689 -30.5298
lfingers 7.12502
lthumb -15.6358 -1.14165
rfemur -14.003 3.29504 17.552
rtibia 29.7946
rfoot -22.2427 -15.0408
rtoes 3.37391
lfemur -3.74958 5.76078 -13.5067
ltibia 14.7503
lfoot -14.1392 14.054
ltoes -5.02291
2681
root -0.103043 16.6448 -5.13301 163.501 -82.4524 -159.112
lowerback -3.80286 -1.77621 0.468659
upperback 1.37032 -2.41243 0.46244
thorax 3.54242 -1.19626 0.0491446
lowerneck 3.29171 -11.3066 -5.83276
upperneck -8.67187 -14.8298 12.4845
head -1.6955 -7.74802 4.85925
rclavicle 2.05494e-014 5.56597e-015
rhumerus -107.063 56.7234 -138.894
rradius 93.227
rwrist 22.4724
rhand -61.9001 23.0013
rfingers 7.12502
rthumb -33.9588 -3.79157
lclavicle 2.05494e-014 5.56597e-015
lhumerus -90.6533 -41.6723 118.169
lradius 96.727
lwrist -4.02104
lhand -42.6193 -30.3572
lfingers 7.12502
lthumb -15.4917 -0.957878
rfemur -14.0272 3.32321 17.4841
rtibia 29.7962
rfoot -22.1951 -14.9049
rtoes 3.34375
lfemur -3.74196 5.88684 -13.5587
ltibia 14.7773
lfoot -14.1796 14.062
ltoes -4.97232
2682
root -0.107332 16.6441 -5.12708 164.118 -82.3175 -159.723
lowerback -3.79389 -1.75842 0.454273
upperback 1.36734 -2.38652 0.427968
thorax 3.53339 -1.18325 0.0238834
lowerneck 3.17175 -11.0973 -5.65238
upperneck -8.60694 -14.5497 12.1562
head -1.72261 -7.59607 4.73458
rclavicle -4.4155e-014 3.97569e-015
rhumerus -106.652 56.4962 -138.373
rradius 93.2713
rwrist 22.5599
rhand -61.7282 23.0421
rfingers 7.12502
rthumb -33.7955 -3.78678
lclavicle -4.4155e-014 3.97569e-015
lhumerus -90.8392 -41.777 118.198
lradius 96.9177
lwrist -3.97096
lhand -42.4691 -30.1747
lfingers 7.12502
lthumb -15.3471 -0.764278
rfemur -14.0525 3.35049 17.4089
rtibia 29.8009
rfoot -22.1327 -14.7582
rtoes 3.2896
lfemur -3.72996 6.03553 -13.6147
ltibia 14.809
lfoot -14.2214 14.0587
ltoes -4.92145
2683
root -0.111636 16.643 -5.12025 164.71 -82.1704 -160.315
lowerback -3.78678 -1.74183 0.441997
upperback 1.37345 -2.36245 0.393329
thorax 3.53472 -1.17109 -0.00310515
lowerneck 3.05995 -10.8823 -5.46305
upperneck -8.56812 -14.2615 11.8202
head -1.75921 -7.44102 4.60772
rclavicle -5.93869e-015 3.57812e-015
rhumerus -106.204 56.2619 -137.799
rradius 93.3273
rwrist 22.6292
rhand -61.5225 23.0949
rfingers 7.12502
rthumb -33.6001 -3.77672
lclavicle -5.93869e-015 3.57812e-015
lhumerus -91.0226 -41.8965 118.215
lradius 97.1253
lwrist -3.90863
lhand -42.3094 -29.9813
lfingers 7.12502
lthumb -15.1932 -0.559096
rfemur -14.0757 3.378 17.3335
rtibia 29.8073
rfoot -22.0576 -14.6073
rtoes 3.20046
lfemur -3.7135 6.19682 -13.6689
ltibia 14.8469
lfoot -14.2687 14.0515
ltoes -4.86602
2684
root -0.11608 16.6417 -5.1125 165.251 -82.0094 -160.861
lowerback -3.76768 -1.72497 0.43906
upperback 1.37745 -2.33841 0.358387
thorax 3.52676 -1.15879 -0.0351825
lowerneck 2.9696 -10.6615 -5.26946
upperneck -8.55098 -13.9658 11.4759
head -1.80567 -7.28318 4.47962
rclavicle -3.3048e-015 -2.78299e-015
rhumerus -105.74 56.0018 -137.184
rradius 93.4016
rwrist 22.6795
rhand -61.2823 23.1682
rfingers 7.12502
rthumb -33.3717 -3.75281
lclavicle -3.3048e-015 -2.78299e-015
lhumerus -91.2251 -42.0175 118.233
lradius 97.3519
lwrist -3.8297
lhand -42.1382 -29.767
lfingers 7.12502
lthumb -15.0283 -0.332366
rfemur -14.0955 3.40115 17.2617
rtibia 29.8141
rfoot -21.9695 -14.4485
rtoes 3.09057
lfemur -3.69029 6.35679 -13.7182
ltibia 14.8907
lfoot -14.3245 14.0554
ltoes -4.80203
2685
root -0.120346 16.6403 -5.1039 165.714 -81.833 -161.332
lowerback -3.73554 -1.70724 0.446215
upperback 1.37988 -2.31376 0.32593
thorax 3.50954 -1.14604 -0.069849
lowerneck 2.93192 -10.4334 -5.10012
upperneck -8.33365 -13.7072 10.7996
head -2.02608 -7.1136 4.72053
rclavicle -2.56929e-014 1.98785e-015
rhumerus -105.256 55.7153 -136.523
rradius 93.4947
rwrist 22.7083
rhand -61.0033 23.2587
rfingers 7.12502
rthumb -33.1065 -3.71902
lclavicle -2.56929e-014 1.98785e-015
lhumerus -91.4411 -42.1378 118.25
lradius 97.5943
lwrist -3.7412
lhand -41.9622 -29.5307
lfingers 7.12502
lthumb -14.8587 -0.0834981
rfemur -14.1136 3.43119 17.1996
rtibia 29.8187
rfoot -21.8752 -14.288
rtoes 2.98089
lfemur -3.6629 6.50482 -13.7583
ltibia 14.9416
lfoot -14.3937 14.08
ltoes -4.71517
2686
root -0.124591 16.6386 -5.09428 166.084 -81.6423 -161.715
lowerback -3.69116 -1.68973 0.468103
upperback 1.38157 -2.29014 0.295063
thorax 3.48417 -1.13354 -0.110781
lowerneck 2.87174 -10.2033 -4.89786
upperneck -8.35069 -13.3981 10.4549
head -2.0872 -6.95123 4.56926
rclavicle 5.41688e-014 -9.54166e-015
rhumerus -104.756 55.4039 -135.821
rradius 93.6056
rwrist 22.7141
rhand -60.6786 23.3754
rfingers 7.12502
rthumb -32.7977 -3.66733
lclavicle 5.41688e-014 -9.54166e-015
lhumerus -91.6672 -42.2513 118.261
lradius 97.8507
lwrist -3.64056
lhand -41.7671 -29.2695
lfingers 7.12502
lthumb -14.6707 0.191488
rfemur -14.126 3.46877 17.1495
rtibia 29.8193
rfoot -21.7759 -14.1309
rtoes 2.87838
lfemur -3.62883 6.64349 -13.7875
ltibia 14.9993
lfoot -14.477 14.1202
ltoes -4.60948
2687
root -0.128819 16.637 -5.08369 166.375 -81.4382 -162.023
lowerback -3.63532 -1.67228 0.502078
upperback 1.38038 -2.26715 0.265689
thorax 3.449 -1.12118 -0.156569
lowerneck 2.82187 -9.96999 -4.69248
upperneck -8.373 -13.0858 10.1017
head -2.15091 -6.78742 4.41544
rclavicle 1.16041e-014 3.57812e-015
rhumerus -104.247 55.0634 -135.085
rradius 93.7303
rwrist 22.7101
rhand -60.3305 23.5018
rfingers 7.12502
rthumb -32.4664 -3.60949
lclavicle 1.16041e-014 3.57812e-015
lhumerus -91.9001 -42.3541 118.26
lradius 98.1225
lwrist -3.53456
lhand -41.5375 -28.9813
lfingers 7.12502
lthumb -14.4496 0.495629
rfemur -14.1348 3.51581 17.11
rtibia 29.8143
rfoot -21.6764 -13.9753
rtoes 2.79687
lfemur -3.59025 6.77391 -13.8069
ltibia 15.0635
lfoot -14.5796 14.1688
ltoes -4.46296
2688
root -0.132959 16.6354 -5.07215 166.626 -81.2225 -162.292
lowerback -3.57501 -1.65654 0.540688
upperback 1.38278 -2.24668 0.236065
thorax 3.41487 -1.10999 -0.205323
lowerneck 2.76648 -9.73224 -4.48125
upperneck -8.39504 -12.7687 9.74252
head -2.21252 -6.6212 4.25781
rclavicle -2.70844e-015 4.37326e-015
rhumerus -103.721 54.7052 -134.315
rradius 93.8651
rwrist 22.6973
rhand -59.9695 23.6197
rfingers 7.12502
rthumb -32.1228 -3.56149
lclavicle -2.70844e-015 4.37326e-015
lhumerus -92.1216 -42.4543 118.234
lradius 98.4053
lwrist -3.42188
lhand -41.2828 -28.6786
lfingers 7.12502
lthumb -14.2041 0.815764
rfemur -14.1415 3.57295 17.0754
rtibia 29.8034
rfoot -21.573 -13.8265
rtoes 2.72091
lfemur -3.54877 6.89538 -13.8226
ltibia 15.1335
lfoot -14.6981 14.2245
ltoes -4.28076
2689
root -0.137523 16.6337 -5.0596 166.851 -81.0001 -162.542
lowerback -3.51415 -1.64547 0.582038
upperback 1.38887 -2.2325 0.204637
thorax 3.38408 -1.10185 -0.257944
lowerneck 2.7104 -9.48856 -4.26702
upperneck -8.41463 -12.4448 9.37923
head -2.27192 -6.45166 4.09784
rclavicle 3.61788e-014 3.97569e-016
rhumerus -103.185 54.3282 -133.524
rradius 94.007
rwrist 22.6796
rhand -59.6113 23.696
rfingers 7.12502
rthumb -31.7817 -3.55346
lclavicle 3.61788e-014 3.97569e-016
lhumerus -92.329 -42.5524 118.178
lradius 98.7001
lwrist -3.30535
lhand -40.9922 -28.3462
lfingers 7.12502
lthumb -13.9241 1.16756
rfemur -14.1404 3.62916 17.0403
rtibia 29.7878
rfoot -21.4668 -13.6742
rtoes 2.64228
lfemur -3.49992 7.00994 -13.8395
ltibia 15.208
lfoot -14.8316 14.2828
ltoes -4.07029
2690
root -0.142108 16.6321 -5.04622 167.07 -80.7669 -162.785
lowerback -3.44599 -1.63505 0.624069
upperback 1.39318 -2.21901 0.16981
thorax 3.3472 -1.09405 -0.314226
lowerneck 2.65385 -9.24053 -4.04939
upperneck -8.42955 -12.1161 9.01596
head -2.32794 -6.27995 3.93674
rclavicle 3.9086e-014 -2.78299e-015
rhumerus -102.636 53.9225 -132.707
rradius 94.1582
rwrist 22.6528
rhand -59.2576 23.7381
rfingers 7.12502
rthumb -31.4448 -3.57762
lclavicle 3.9086e-014 -2.78299e-015
lhumerus -92.524 -42.6576 118.09
lradius 99.0136
lwrist -3.16084
lhand -40.6397 -27.9988
lfingers 7.12502
lthumb -13.5844 1.53798
rfemur -14.1398 3.6978 17.0043
rtibia 29.7685
rfoot -21.3573 -13.5253
rtoes 2.56709
lfemur -3.45154 7.11433 -13.8589
ltibia 15.2876
lfoot -14.972 14.3552
ltoes -3.85278
